<svg width="500" height="412" viewBox="0 0 500 412" fill="none" xmlns="http://www.w3.org/2000/svg">
<path d="M45.6596 104.366C94.1862 62.7001 132.519 29.7565 236.544 88.5328C286.515 116.754 326.819 127.421 360.346 127.365C419.094 127.365 457.177 94.6993 490.093 66.45C495.742 61.535 499.256 54.6129 499.889 47.1512C500.521 39.6895 498.223 32.2748 493.481 26.4788C491.169 23.6346 488.309 21.2833 485.071 19.5637C481.833 17.8442 478.284 16.7914 474.632 16.4677C470.981 16.144 467.301 16.5559 463.812 17.679C460.322 18.8022 457.093 20.6138 454.316 23.0066C405.817 64.7278 367.457 97.6714 263.432 38.8396C125.991 -38.7418 61.6037 16.5346 9.88278 60.9779C4.23712 65.8968 0.728777 72.8208 0.101362 80.2823C-0.526052 87.7439 1.77678 95.1565 6.52175 100.949C8.83621 103.788 11.6967 106.135 14.934 107.849C18.1712 109.563 21.7194 110.61 25.3686 110.929C29.0178 111.247 32.6939 110.831 36.1792 109.703C39.6645 108.576 42.8882 106.761 45.6596 104.366ZM454.316 164.864C405.817 206.53 367.457 239.529 263.432 180.697C125.991 103.06 61.6037 158.364 9.88278 202.78C4.23712 207.699 0.728777 214.623 0.101362 222.084C-0.526052 229.546 1.77678 236.958 6.52175 242.751C8.83221 245.594 11.6896 247.945 14.9249 249.664C18.1601 251.384 21.7074 252.436 25.3568 252.76C29.0061 253.084 32.6833 252.672 36.1707 251.549C39.6581 250.426 42.8847 248.615 45.6596 246.223C94.1862 204.53 132.519 171.586 236.544 230.335C286.515 258.612 326.819 269.223 360.346 269.223C419.094 269.223 457.177 236.557 490.093 208.252C495.747 203.346 499.264 196.427 499.897 188.968C500.53 181.509 498.228 174.097 493.481 168.308C491.169 165.463 488.308 163.111 485.07 161.392C481.831 159.673 478.28 158.621 474.627 158.3C470.975 157.979 467.295 158.394 463.806 159.522C460.317 160.649 457.09 162.466 454.316 164.864ZM454.316 306.694C405.817 348.415 367.457 381.359 263.432 322.582C125.991 244.945 61.6037 300.222 9.88278 344.665C4.23712 349.584 0.728777 356.508 0.101362 363.97C-0.526052 371.431 1.77678 378.844 6.52175 384.636C8.83393 387.479 11.6935 389.828 14.9308 391.544C18.1682 393.261 21.7173 394.309 25.3676 394.628C29.0179 394.947 32.695 394.529 36.1808 393.399C39.6665 392.27 42.8899 390.452 45.6596 388.053C94.1862 346.387 132.519 313.471 236.544 372.22C286.515 400.441 326.819 411.108 360.346 411.108C419.094 411.108 457.177 378.386 490.093 350.137C495.742 345.222 499.256 338.3 499.889 330.838C500.521 323.377 498.223 315.962 493.481 310.166C491.166 307.325 488.305 304.977 485.068 303.259C481.83 301.542 478.282 300.491 474.631 300.167C470.981 299.843 467.302 300.254 463.813 301.375C460.324 302.496 457.095 304.305 454.316 306.694Z" fill="#F8F9FA"/>
</svg>
