<svg width="372" height="500" viewBox="0 0 372 500" fill="none" xmlns="http://www.w3.org/2000/svg">
<path d="M0.435335 425.382V74.6175C0.415284 60.7696 4.3173 47.1992 11.6898 35.477C19.0622 23.7548 29.6036 14.3601 42.0939 8.38036C56.9136 1.38036 73.4016 -1.31574 89.6791 0.599255C105.957 2.51425 121.369 8.96334 134.159 19.2116L346.618 194.594C354.559 201.477 360.928 209.986 365.293 219.546C369.658 229.105 371.917 239.491 371.917 250C371.917 260.509 369.658 270.895 365.293 280.454C360.928 290.014 354.559 298.523 346.618 305.406L134.159 480.788C121.369 491.037 105.957 497.486 89.6791 499.401C73.4016 501.316 56.9136 498.62 42.0939 491.62C29.6036 485.64 19.0622 476.245 11.6898 464.523C4.3173 452.801 0.415284 439.23 0.435335 425.382Z" fill="#F8F9FA"/>
</svg>
