<svg width="500" height="462" viewBox="0 0 500 462" fill="none" xmlns="http://www.w3.org/2000/svg">
<path d="M492.252 105.084C500.258 116.494 502.06 129.404 497.656 143.815L415.09 415.834C411.287 428.644 403.631 439.403 392.121 448.11C380.612 456.817 368.352 461.17 355.342 461.17H78.2193C62.807 461.17 47.945 455.816 33.6335 445.107C19.322 434.399 9.36404 421.238 3.75954 405.626C-1.04432 392.215 -1.24448 379.505 3.15906 367.495C3.15906 366.694 3.4593 363.992 4.05978 359.389C4.66026 354.785 5.06059 351.082 5.26075 348.28C5.46091 346.678 5.16067 344.527 4.36002 341.825C3.55938 339.122 3.25914 337.171 3.4593 335.97C3.85962 333.768 4.66026 331.666 5.86123 329.665C7.06219 327.663 8.71352 325.311 10.8152 322.609C12.9169 319.907 14.5682 317.555 15.7692 315.553C20.3729 307.947 24.8765 298.79 29.28 288.081C33.6836 277.373 36.686 268.215 38.2873 260.609C38.8878 258.608 38.9378 255.605 38.4374 251.602C37.937 247.599 37.8869 244.797 38.2873 243.195C38.8878 240.994 40.5891 238.191 43.3914 234.789C46.1936 231.386 47.895 229.084 48.4955 227.883C52.6988 220.677 56.9022 211.47 61.1056 200.261C65.309 189.052 67.811 180.045 68.6116 173.239C68.8118 171.438 68.5616 168.235 67.861 163.631C67.1605 159.028 67.2105 156.225 68.0111 155.225C68.8118 152.623 71.0136 149.57 74.6164 146.067C78.2193 142.564 80.4211 140.313 81.2217 139.312C85.0248 134.108 89.2782 125.651 93.982 113.942C98.6858 102.232 101.438 92.5743 102.239 84.9682C102.439 83.3669 102.139 80.8149 101.338 77.3121C100.537 73.8093 100.337 71.1571 100.737 69.3557C101.138 67.7544 102.038 65.953 103.44 63.9514C104.841 61.9497 106.642 59.6479 108.844 57.0458C111.046 54.4437 112.747 52.342 113.948 50.7407C115.549 48.3388 117.201 45.2864 118.902 41.5834C120.603 37.8804 122.105 34.3776 123.406 31.075C124.707 27.7723 126.308 24.1694 128.209 20.2663C130.111 16.3631 132.063 13.1606 134.064 10.6586C136.066 8.15655 138.718 5.80466 142.021 3.60289C145.323 1.40113 148.926 0.250201 152.829 0.150121C156.732 0.0500402 161.486 0.600482 167.091 1.80145L166.79 2.70217C174.397 0.900723 179.501 0 182.103 0H410.586C425.398 0 436.807 5.6045 444.814 16.8135C452.82 28.0225 454.622 41.033 450.218 55.8448L367.952 327.863C360.746 351.682 353.59 367.045 346.485 373.95C339.379 380.856 326.519 384.309 307.904 384.309H46.9943C41.5899 384.309 37.7869 385.81 35.5851 388.812C33.3833 392.015 33.2832 396.318 35.2849 401.723C40.0887 415.734 54.5003 422.739 78.5196 422.739H355.642C361.447 422.739 367.051 421.188 372.456 418.086C377.86 414.983 381.363 410.83 382.964 405.626L473.036 109.288C474.438 104.884 474.938 99.1796 474.538 92.174C482.144 95.1764 488.048 99.4799 492.252 105.084ZM172.795 105.685C171.995 108.287 172.195 110.539 173.396 112.44C174.597 114.342 176.598 115.293 179.401 115.293H361.947C364.549 115.293 367.101 114.342 369.603 112.44C372.105 110.539 373.757 108.287 374.557 105.685L380.862 86.4694C381.663 83.8674 381.463 81.6155 380.262 79.714C379.061 77.8125 377.059 76.8617 374.257 76.8617H191.71C189.108 76.8617 186.556 77.8125 184.054 79.714C181.552 81.6155 179.901 83.8674 179.1 86.4694L172.795 105.685ZM147.875 182.547C147.075 185.149 147.275 187.4 148.476 189.302C149.677 191.204 151.678 192.154 154.481 192.154H337.027C339.629 192.154 342.181 191.204 344.683 189.302C347.185 187.4 348.837 185.149 349.637 182.547L355.942 163.331C356.743 160.729 356.543 158.477 355.342 156.576C354.141 154.674 352.139 153.723 349.337 153.723H166.79C164.188 153.723 161.636 154.674 159.134 156.576C156.632 158.477 154.981 160.729 154.18 163.331L147.875 182.547Z" fill="#F8F9FA"/>
</svg>
