<svg width="358" height="500" viewBox="0 0 358 500" fill="none" xmlns="http://www.w3.org/2000/svg">
<path d="M0 71.4286C0 52.4845 7.52549 34.3164 20.9209 20.9209C34.3164 7.52549 52.4845 0 71.4286 0H285.714C304.658 0 322.826 7.52549 336.222 20.9209C349.617 34.3164 357.143 52.4845 357.143 71.4286V428.571C357.143 447.515 349.617 465.684 336.222 479.079C322.826 492.475 304.658 500 285.714 500H71.4286C52.4845 500 34.3164 492.475 20.9209 479.079C7.52549 465.684 0 447.515 0 428.571V71.4286ZM107.143 285.714C116.615 285.714 125.699 281.952 132.397 275.254C139.094 268.556 142.857 259.472 142.857 250C142.857 240.528 139.094 231.444 132.397 224.746C125.699 218.048 116.615 214.286 107.143 214.286C97.6708 214.286 88.5868 218.048 81.8891 224.746C75.1913 231.444 71.4286 240.528 71.4286 250C71.4286 259.472 75.1913 268.556 81.8891 275.254C88.5868 281.952 97.6708 285.714 107.143 285.714Z" fill="#F8F9FA"/>
</svg>
