<svg width="219" height="500" viewBox="0 0 219 500" fill="none" xmlns="http://www.w3.org/2000/svg">
<path d="M156.253 390.638C156.248 399.231 153.882 407.657 149.413 414.996C144.943 422.335 138.542 428.304 130.909 432.251C123.277 436.199 114.706 437.972 106.133 437.377C97.5611 436.783 89.3171 433.844 82.3023 428.881C75.2875 423.918 69.7719 417.122 66.3581 409.236C62.9443 401.351 61.7637 392.678 62.9454 384.167C64.127 375.656 67.6254 367.633 73.0583 360.975C78.4912 354.318 85.6495 349.282 93.751 346.418V296.885C93.751 292.741 95.3973 288.766 98.3276 285.836C101.258 282.906 105.232 281.259 109.377 281.259C113.521 281.259 117.495 282.906 120.425 285.836C123.356 288.766 125.002 292.741 125.002 296.885V346.418C134.145 349.65 142.061 355.639 147.658 363.559C153.255 371.479 156.258 380.94 156.253 390.638Z" fill="#DF2935"/>
<path d="M31.251 78.1275C31.251 57.4068 39.4823 37.5348 54.1341 22.883C68.7858 8.23126 88.6578 0 109.379 0C130.099 0 149.971 8.23126 164.623 22.883C179.275 37.5348 187.506 57.4068 187.506 78.1275V314.073C202.579 329.457 212.775 348.949 216.816 370.104C220.856 391.26 218.56 413.138 210.216 432.994C201.873 452.85 187.852 469.801 169.914 481.721C151.975 493.641 130.917 500 109.379 500C87.8406 500 66.782 493.641 48.8433 481.721C30.9047 469.801 16.8845 452.85 8.54088 432.994C0.197235 413.138 -2.0985 391.26 1.94156 370.104C5.98161 348.949 16.1776 329.457 31.251 314.073V78.1275ZM109.379 31.251C96.9461 31.251 85.0229 36.1898 76.2318 44.9808C67.4408 53.7719 62.502 65.6951 62.502 78.1275V327.729L57.2831 332.417C45.4881 342.965 37.174 356.845 33.4408 372.222C29.7077 387.599 30.7317 403.747 36.3771 418.529C42.0226 433.311 52.0235 446.03 65.0563 455.004C78.0891 463.977 93.5395 468.782 109.363 468.782C125.186 468.782 140.637 463.977 153.67 455.004C166.702 446.03 176.703 433.311 182.349 418.529C187.994 403.747 189.018 387.599 185.285 372.222C181.552 356.845 173.238 342.965 161.443 332.417L156.255 327.698V78.1275C156.255 65.6951 151.316 53.7719 142.525 44.9808C133.734 36.1898 121.811 31.251 109.379 31.251Z" fill="#F8F9FA"/>
</svg>
