<svg width="344" height="500" viewBox="0 0 344 500" fill="none" xmlns="http://www.w3.org/2000/svg">
<path fill-rule="evenodd" clip-rule="evenodd" d="M250 375C259.289 344.134 278.452 317.774 297.516 291.55L298.047 290.82C303.125 283.887 308.203 276.953 313.086 269.922C332.422 242.09 343.75 208.398 343.75 171.973C343.75 76.9531 266.797 0 171.875 0C76.9531 0 0 76.9531 0 171.875C0 208.301 11.3281 242.09 30.6641 269.824C35.5469 276.855 40.625 283.789 45.7031 290.723C65.0391 317.188 84.4727 343.848 93.75 374.902H250V375ZM78.125 187.5C86.7188 187.5 93.75 180.469 93.75 171.875C93.75 128.711 128.711 93.75 171.875 93.75C180.469 93.75 187.5 86.7188 187.5 78.125C187.5 69.5312 180.469 62.5 171.875 62.5C111.426 62.5 62.5 111.426 62.5 171.875C62.5 180.469 69.5312 187.5 78.125 187.5Z" fill="#FDCA40"/>
<path d="M171.875 500C215.039 500 250 465.039 250 421.875V406.25H93.75V421.875C93.75 465.039 128.711 500 171.875 500Z" fill="#E9ECEF"/>
</svg>
