<svg width="500" height="500" viewBox="0 0 500 500" fill="none" xmlns="http://www.w3.org/2000/svg">
<path d="M304.791 54.7015C304.791 24.6693 280.3 0 250.089 0C219.878 0 195.209 24.6693 195.388 54.7015V195.388H54.7015C24.6693 195.388 0 219.878 0 250.089C0 280.122 24.6693 304.791 54.7015 304.791H195.388V445.299C195.388 475.331 219.878 500 250.089 500C280.122 500 304.791 475.509 304.791 445.299V304.791H445.299C475.331 304.791 500 280.3 500 250.089C500 220.057 475.509 195.388 445.299 195.388H304.791V54.7015Z" fill="#F8F9FA"/>
</svg>
