<svg width="407" height="469" viewBox="0 0 407 469" fill="none" xmlns="http://www.w3.org/2000/svg">
<path d="M31.25 31.25C22.962 31.25 15.0134 34.5424 9.15291 40.4029C3.2924 46.2634 0 54.212 0 62.5V93.75C0 102.038 3.2924 109.987 9.15291 115.847C15.0134 121.708 22.962 125 31.25 125H46.875V406.25C46.875 422.826 53.4598 438.723 65.1808 450.444C76.9018 462.165 92.799 468.75 109.375 468.75H296.875C313.451 468.75 329.348 462.165 341.069 450.444C352.79 438.723 359.375 422.826 359.375 406.25V125H375C383.288 125 391.237 121.708 397.097 115.847C402.958 109.987 406.25 102.038 406.25 93.75V62.5C406.25 54.212 402.958 46.2634 397.097 40.4029C391.237 34.5424 383.288 31.25 375 31.25H265.625C265.625 22.962 262.333 15.0134 256.472 9.15291C250.612 3.2924 242.663 0 234.375 0L171.875 0C163.587 0 155.638 3.2924 149.778 9.15291C143.917 15.0134 140.625 22.962 140.625 31.25H31.25ZM125 156.25C129.144 156.25 133.118 157.896 136.049 160.826C138.979 163.757 140.625 167.731 140.625 171.875V390.625C140.625 394.769 138.979 398.743 136.049 401.674C133.118 404.604 129.144 406.25 125 406.25C120.856 406.25 116.882 404.604 113.951 401.674C111.021 398.743 109.375 394.769 109.375 390.625V171.875C109.375 167.731 111.021 163.757 113.951 160.826C116.882 157.896 120.856 156.25 125 156.25ZM203.125 156.25C207.269 156.25 211.243 157.896 214.174 160.826C217.104 163.757 218.75 167.731 218.75 171.875V390.625C218.75 394.769 217.104 398.743 214.174 401.674C211.243 404.604 207.269 406.25 203.125 406.25C198.981 406.25 195.007 404.604 192.076 401.674C189.146 398.743 187.5 394.769 187.5 390.625V171.875C187.5 167.731 189.146 163.757 192.076 160.826C195.007 157.896 198.981 156.25 203.125 156.25ZM296.875 171.875V390.625C296.875 394.769 295.229 398.743 292.299 401.674C289.368 404.604 285.394 406.25 281.25 406.25C277.106 406.25 273.132 404.604 270.201 401.674C267.271 398.743 265.625 394.769 265.625 390.625V171.875C265.625 167.731 267.271 163.757 270.201 160.826C273.132 157.896 277.106 156.25 281.25 156.25C285.394 156.25 289.368 157.896 292.299 160.826C295.229 163.757 296.875 167.731 296.875 171.875Z" fill="#F8F9FA"/>
</svg>
